# Blender 4.3.2
# www.blender.org
mtllib scenario_4.mtl
o Cube
v -57.500038 -0.182094 11.417029
v -57.500038 -0.182094 -24.231140
v 9.825472 -0.182094 11.417029
v 9.825472 -0.182094 -24.231140
v 9.825472 -0.141050 11.312774
v 9.825472 1.858950 11.312774
v 9.825472 -0.141050 -24.132254
v 9.825472 1.858950 -24.132254
v -57.500038 -0.132739 11.417029
v -57.500038 1.867261 11.417029
v -57.500038 -0.132739 -24.234488
v -57.500038 1.867261 -24.234488
v 9.825472 -0.132739 11.417029
v 9.825472 1.867261 11.417029
v 9.825472 -0.132739 -24.234488
v 9.825472 1.867261 -24.234488
vn -0.0000 1.0000 -0.0000
vn 1.0000 -0.0000 -0.0000
vn -1.0000 -0.0000 -0.0000
vn -0.0000 -0.0000 -1.0000
vn -0.0000 -0.0000 1.0000
vt -1.532700 -0.616860
vt 2.525336 -0.620759
vt 2.534547 1.619681
vt -1.523489 1.623581
vt 0.165980 0.000039
vt 0.174787 0.000039
vt 0.174787 0.208152
vt 0.165980 0.208152
vt 0.008846 0.604663
vt 0.000039 0.604663
vt 0.000039 0.395337
vt 0.008846 0.395337
vt 0.000039 0.000039
vt 0.008846 0.000039
vt 0.008846 0.999961
vt 0.000039 0.999961
s 0
usemtl Material
f 4/1/1 2/2/1 1/3/1 3/4/1
f 7/5/2 8/6/2 6/7/2 5/8/2
f 9/9/3 10/10/3 12/11/3 11/12/3
f 11/12/4 12/11/4 16/13/4 15/14/4
f 13/15/5 14/16/5 10/10/5 9/9/5
